<svg width="18" height="24" viewBox="0 0 18 24" fill="none" xmlns="http://www.w3.org/2000/svg">
<path fill-rule="evenodd" clip-rule="evenodd" d="M9 24C9.61591 24 10.2024 23.7366 10.6116 23.2763L10.6126 23.2752L10.6199 23.2669L10.6378 23.2466L10.6391 23.2451C10.6545 23.2275 10.676 23.203 10.7031 23.1717C10.7574 23.1091 10.8344 23.0194 10.9309 22.9049C11.1237 22.676 11.3952 22.3471 11.719 21.9362C12.3649 21.1165 13.2284 19.959 14.0956 18.6087C15.7569 16.0219 17.7188 12.2986 17.7188 8.79007C17.7188 3.95789 13.8376 0 9 0C4.16244 0 0.28125 3.95789 0.28125 8.79007C0.28125 12.2986 2.24309 16.0219 3.90444 18.6087C4.77163 19.959 5.63514 21.1165 6.281 21.9362C6.60484 22.3471 6.87626 22.676 7.06912 22.9049C7.16562 23.0194 7.24264 23.1091 7.29688 23.1717C7.32399 23.203 7.34545 23.2275 7.36086 23.2451L7.37765 23.2642L7.38422 23.2716L7.3884 23.2763C7.79758 23.7366 8.38409 24 9 24ZM9 12C11.0711 12 12.75 10.3211 12.75 8.25C12.75 6.17893 11.0711 4.5 9 4.5C6.92893 4.5 5.25 6.17893 5.25 8.25C5.25 10.3211 6.92893 12 9 12Z" fill="white"/>
</svg>
