<svg width="20" height="20" viewBox="0 0 20 20" fill="none" xmlns="http://www.w3.org/2000/svg">
<path fill-rule="evenodd" clip-rule="evenodd" d="M0 1.875C0 1.18464 0.559644 0.625 1.25 0.625H3C4.66463 0.625 5.5734 1.68641 5.99782 2.55991C6.08578 2.74093 6.15677 2.91934 6.21412 3.08738H18.75C19.1094 3.08738 19.4515 3.2421 19.6888 3.51204C19.9261 3.78198 20.0357 4.14101 19.9897 4.49748L19.0564 11.7247C18.9759 12.348 18.4451 12.8146 17.8167 12.8146H6.15C6.13986 12.8146 6.13264 12.8152 6.12785 12.8158C6.12424 12.8195 6.11896 12.8255 6.11226 12.8348C6.06419 12.9011 6 13.0586 6 13.2823C6 13.506 6.06419 13.6635 6.11226 13.7299C6.11896 13.7391 6.12425 13.7452 6.12785 13.7489C6.13265 13.7495 6.13986 13.75 6.15 13.75H17.6667C18.357 13.75 18.9167 14.3096 18.9167 15C18.9167 15.6904 18.357 16.25 17.6667 16.25H6.15C5.24462 16.25 4.53297 15.8111 4.08774 15.1966C3.66915 14.6188 3.5 13.9174 3.5 13.2823C3.5 12.6472 3.66915 11.9458 4.08774 11.368C4.27526 11.1092 4.51004 10.8816 4.78664 10.7047C4.63028 9.4359 4.45493 8.08305 4.30738 6.96454C4.21368 6.25418 4.13134 5.63944 4.07244 5.20236C4.04299 4.98383 4.01941 4.80976 4.00319 4.69039L3.97819 4.50673C3.97495 4.48303 3.97239 4.45921 3.97051 4.43537L3.97029 4.43309C3.9697 4.42712 3.96827 4.41359 3.96566 4.39363C3.96039 4.35335 3.95061 4.28904 3.93385 4.20914C3.89918 4.04373 3.84071 3.8408 3.7492 3.65247C3.57541 3.29479 3.37585 3.125 3 3.125H1.25C0.559644 3.125 0 2.56536 0 1.875ZM6.6465 5.58738C6.68846 5.90152 6.73555 6.2558 6.78591 6.6376C6.93052 7.73383 7.10244 9.0596 7.25747 10.3146H16.7177L17.3282 5.58738H6.6465ZM6.13339 12.8107L6.13254 12.8113L6.13339 12.8107Z" fill="white"/>
<circle cx="16.5625" cy="18.4375" r="1.5625" fill="white"/>
<circle cx="7.8125" cy="18.4375" r="1.5625" fill="white"/>
</svg>
