<svg width="24" height="24" viewBox="0 0 24 24" fill="none" xmlns="http://www.w3.org/2000/svg">
<path fill-rule="evenodd" clip-rule="evenodd" d="M0 12C0 5.37258 5.37258 0 12 0C18.6274 0 24 5.37258 24 12C24 18.6274 18.6274 24 12 24C5.37258 24 0 18.6274 0 12ZM12 2.66667C6.84534 2.66667 2.66667 6.84534 2.66667 12C2.66667 17.1547 6.84534 21.3333 12 21.3333C17.1547 21.3333 21.3333 17.1547 21.3333 12C21.3333 6.84534 17.1547 2.66667 12 2.66667Z" fill="white"/>
<path d="M15.75 8.25C15.75 10.3211 14.0711 12 12 12C9.92893 12 8.25 10.3211 8.25 8.25C8.25 6.17893 9.92893 4.5 12 4.5C14.0711 4.5 15.75 6.17893 15.75 8.25Z" fill="white"/>
<path d="M5.31777 15.4091C6.55917 13.8306 9.08543 12.75 12 12.75C14.9145 12.75 17.4408 13.8306 18.6822 15.4091C17.4408 17.8375 14.9145 19.5 12 19.5C9.08542 19.5 6.55916 17.8375 5.31777 15.4091Z" fill="white"/>
</svg>
