<svg width="24" height="24" viewBox="0 0 24 24" fill="none" xmlns="http://www.w3.org/2000/svg">
<path d="M4.94159 0.0975844C5.37299 -0.118118 5.89774 0.0346889 6.14589 0.448277L9.46885 5.98654C9.71083 6.38985 9.61073 6.91015 9.23756 7.19504L7.67238 8.42818C7.34343 8.68734 7.24476 9.11105 7.40679 9.44533C8.92628 12.5802 11.4783 15.0861 14.5533 16.5881C14.889 16.7521 15.3149 16.6536 15.5749 16.3236L16.805 14.7624C17.0899 14.3893 17.6102 14.2892 18.0135 14.5312L23.5517 17.8541C23.9653 18.1023 24.1181 18.627 23.9024 19.0584L21.6871 23.489C21.5308 23.8017 21.2111 23.9993 20.8615 23.9993C9.57912 23.9993 0.424925 14.819 0.0150602 3.38563C0.014408 3.36744 0.0135383 3.35923 0.0119519 3.34425C0.0103864 3.32947 0.00812318 3.3081 0.00468251 3.26406C-0.000185368 3.20174 -0.00579664 3.0998 0.0136125 2.98483C0.0214856 2.93819 0.0329764 2.89197 0.0481025 2.84659C0.125517 2.61435 0.292019 2.42237 0.510981 2.31289L4.94159 0.0975844Z" fill="white"/>
</svg>
