<svg width="24" height="24" viewBox="0 0 24 24" fill="none" xmlns="http://www.w3.org/2000/svg">
<path fill-rule="evenodd" clip-rule="evenodd" d="M12 3C16.9706 3 21 7.02944 21 12C21 16.9706 16.9706 21 12 21C7.02944 21 3 16.9706 3 12C3 7.02944 7.02944 3 12 3ZM12 0C18.6274 0 24 5.37258 24 12C24 18.6274 18.6274 24 12 24C5.37258 24 0 18.6274 0 12C0 5.37258 5.37258 0 12 0Z" fill="#CC693E"/>
<path fill-rule="evenodd" clip-rule="evenodd" d="M17.528 8.2827C18.1313 8.85047 18.1601 9.79979 17.5923 10.403L11.5923 16.778C11.3037 17.0846 10.8996 17.2558 10.4787 17.2498C10.0577 17.2439 9.6586 17.0612 9.37889 16.7465L6.37889 13.3715C5.82851 12.7524 5.88428 11.8043 6.50345 11.2539C7.12263 10.7035 8.07074 10.7593 8.62111 11.3785L10.5316 13.5278L15.4077 8.34695C15.9755 7.74369 16.9248 7.71493 17.528 8.2827Z" fill="#CC693E"/>
</svg>
