<svg width="24" height="24" viewBox="0 0 24 24" fill="none" xmlns="http://www.w3.org/2000/svg">
<path fill-rule="evenodd" clip-rule="evenodd" d="M0 12C0 5.37258 5.37258 0 12 0C18.6274 0 24 5.37258 24 12C24 18.6274 18.6274 24 12 24C5.37258 24 0 18.6274 0 12ZM12 2.66667C6.84534 2.66667 2.66667 6.84534 2.66667 12C2.66667 17.1547 6.84534 21.3333 12 21.3333C17.1547 21.3333 21.3333 17.1547 21.3333 12C21.3333 6.84534 17.1547 2.66667 12 2.66667ZM12 5.95262C12.7364 5.95262 13.3333 6.54958 13.3333 7.28596V10.6667H16.714C17.4504 10.6667 18.0474 11.2636 18.0474 12C18.0474 12.7364 17.4504 13.3333 16.714 13.3333H13.3333V16.714C13.3333 17.4504 12.7364 18.0474 12 18.0474C11.2636 18.0474 10.6667 17.4504 10.6667 16.714V13.3333H7.28596C6.54958 13.3333 5.95262 12.7364 5.95262 12C5.95262 11.2636 6.54958 10.6667 7.28596 10.6667H10.6667V7.28596C10.6667 6.54958 11.2636 5.95262 12 5.95262Z" fill="black"/>
</svg>
