<svg width="120" height="40" viewBox="0 0 120 40" fill="none" xmlns="http://www.w3.org/2000/svg">
<path d="M110.471 0.00013H9.87062C9.50392 0.00013 9.14162 0.00013 8.77589 0.00213C8.46974 0.00413 8.16603 0.00994 7.85694 0.01483C7.18545 0.0227318 6.51554 0.0818063 5.85304 0.19154C5.19146 0.303663 4.55061 0.515046 3.95216 0.81854C3.35444 1.1246 2.80828 1.5223 2.33351 1.9972C1.85624 2.47077 1.4584 3.01815 1.15529 3.61829C0.851338 4.21724 0.640578 4.85907 0.530288 5.52161C0.418948 6.18332 0.359036 6.85265 0.351088 7.52361C0.341808 7.83021 0.340827 8.13783 0.335938 8.44447V31.5587C0.340827 31.8692 0.341808 32.17 0.351088 32.4806C0.359038 33.1516 0.418951 33.8209 0.530288 34.4825C0.640273 35.1455 0.851046 35.7877 1.15529 36.3868C1.45826 36.985 1.85616 37.5302 2.33351 38.0011C2.80648 38.4781 3.35299 38.8761 3.95216 39.1798C4.55061 39.4841 5.19139 39.6968 5.85304 39.8106C6.51566 39.9195 7.18549 39.9786 7.85694 39.9874C8.16603 39.9942 8.46974 39.9981 8.77589 39.9981C9.14161 40.0001 9.50394 40.0001 9.87062 40.0001H110.471C110.83 40.0001 111.195 40.0001 111.555 39.9981C111.859 39.9981 112.172 39.9942 112.477 39.9874C113.147 39.9791 113.815 39.92 114.477 39.8106C115.14 39.696 115.783 39.4834 116.385 39.1798C116.983 38.8759 117.529 38.478 118.002 38.0011C118.478 37.5284 118.877 36.9836 119.184 36.3868C119.486 35.7872 119.694 35.1451 119.803 34.4825C119.914 33.8208 119.976 33.1516 119.988 32.4806C119.992 32.17 119.992 31.8692 119.992 31.5587C120 31.1954 120 30.8341 120 30.4649V9.53626C120 9.17005 120 8.80677 119.992 8.44447C119.992 8.13783 119.992 7.83021 119.988 7.52357C119.976 6.85255 119.914 6.18337 119.803 5.52157C119.694 4.85941 119.485 4.21763 119.184 3.61825C118.566 2.41533 117.588 1.43616 116.385 0.81845C115.783 0.515697 115.14 0.30437 114.477 0.19145C113.815 0.0812328 113.147 0.0221378 112.477 0.01469C112.172 0.00981 111.859 0.00395 111.555 0.002C111.195 0 110.83 0 110.471 0V0.00013Z" fill="#A6A6A6"/>
<path d="M8.78074 39.1252C8.47606 39.1252 8.17874 39.1213 7.87645 39.1145C7.25024 39.1064 6.62548 39.0519 6.00731 38.9514C5.4309 38.8522 4.87252 38.6675 4.35057 38.4035C3.83342 38.1418 3.36173 37.7985 2.95357 37.3869C2.53951 36.9802 2.19479 36.5085 1.93306 35.9904C1.66845 35.469 1.48533 34.9101 1.39006 34.3332C1.28719 33.7134 1.23153 33.0866 1.22356 32.4582C1.21722 32.2473 1.20892 31.5451 1.20892 31.5451V8.44458C1.20892 8.44458 1.21776 7.75317 1.22361 7.55004C1.23124 6.92273 1.28658 6.2969 1.38914 5.67797C1.48458 5.09949 1.66785 4.53899 1.9326 4.01587C2.19337 3.49819 2.53618 3.0261 2.94774 2.61792C3.35885 2.20587 3.83205 1.86085 4.35008 1.59545C4.87083 1.33234 5.42816 1.14898 6.0034 1.05151C6.6236 0.95008 7.25052 0.89524 7.87891 0.887454L8.78123 0.875244H111.55L112.463 0.887944C113.086 0.895343 113.707 0.949694 114.321 1.05053C114.902 1.14922 115.465 1.33386 115.992 1.59838C117.03 2.13323 117.874 2.97941 118.407 4.01831C118.668 4.53782 118.848 5.09375 118.942 5.66723C119.046 6.29124 119.104 6.92198 119.116 7.55444C119.119 7.83764 119.119 8.14184 119.119 8.44458C119.127 8.81958 119.127 9.17651 119.127 9.53637V30.465C119.127 30.8283 119.127 31.1828 119.119 31.5402C119.119 31.8654 119.119 32.1633 119.115 32.4699C119.104 33.0911 119.046 33.7106 118.944 34.3234C118.851 34.9045 118.669 35.4678 118.404 35.9934C118.141 36.5059 117.798 36.9735 117.389 37.3791C116.98 37.7929 116.508 38.1382 115.989 38.4016C115.464 38.6676 114.902 38.853 114.321 38.9514C113.703 39.0524 113.078 39.1069 112.452 39.1145C112.159 39.1213 111.852 39.1252 111.555 39.1252L110.471 39.1272L8.78074 39.1252Z" fill="black"/>
<path d="M25.1048 20.3008C25.1156 19.4662 25.3373 18.6478 25.7493 17.9218C26.1613 17.1959 26.7503 16.5859 27.4614 16.1488C27.0096 15.5036 26.4137 14.9727 25.7209 14.5981C25.028 14.2236 24.2574 14.0157 23.4702 13.9911C21.791 13.8148 20.163 14.9959 19.3073 14.9959C18.435 14.9959 17.1175 14.0086 15.6988 14.0378C14.7811 14.0674 13.8868 14.3343 13.1029 14.8123C12.319 15.2904 11.6724 15.9633 11.2259 16.7656C9.29189 20.1141 10.7345 25.0351 12.5871 27.7417C13.514 29.0671 14.5973 30.5475 16.0147 30.495C17.4018 30.4375 17.9198 29.6105 19.5941 29.6105C21.2529 29.6105 21.7389 30.495 23.1851 30.4616C24.6735 30.4375 25.6112 29.1304 26.5056 27.7925C27.1716 26.8481 27.6841 25.8044 28.024 24.7C27.1593 24.3343 26.4214 23.7221 25.9023 22.9398C25.3832 22.1575 25.1058 21.2397 25.1048 20.3008Z" fill="white"/>
<path d="M22.3732 12.2111C23.1847 11.2369 23.5845 9.98469 23.4877 8.72046C22.2479 8.85068 21.1026 9.44324 20.2801 10.3801C19.878 10.8377 19.57 11.3702 19.3738 11.9469C19.1775 12.5237 19.0969 13.1335 19.1364 13.7415C19.7566 13.7478 20.3701 13.6134 20.9307 13.3483C21.4914 13.0833 21.9846 12.6944 22.3732 12.2111Z" fill="white"/>
<path d="M42.6382 27.1399H37.9048L36.7681 30.4964H34.7632L39.2466 18.0784H41.3296L45.813 30.4964H43.7739L42.6382 27.1399ZM38.395 25.5911H42.147L40.2974 20.1438H40.2456L38.395 25.5911Z" fill="white"/>
<path d="M55.4956 25.9699C55.4956 28.7834 53.9898 30.591 51.7173 30.591C51.1417 30.6211 50.5692 30.4885 50.0654 30.2084C49.5616 29.9283 49.1469 29.5119 48.8687 29.007H48.8257V33.4914H46.9673V21.4426H48.7661V22.9485H48.8003C49.0913 22.446 49.513 22.0318 50.0206 21.7499C50.5283 21.4681 51.1028 21.3291 51.6831 21.3479C53.9809 21.3479 55.4956 23.1643 55.4956 25.9699ZM53.5855 25.9699C53.5855 24.1369 52.6382 22.9319 51.1929 22.9319C49.773 22.9319 48.8179 24.1623 48.8179 25.9699C48.8179 27.7942 49.773 29.0158 51.1929 29.0158C52.6382 29.0158 53.5855 27.8196 53.5855 25.9699Z" fill="white"/>
<path d="M65.4604 25.9699C65.4604 28.7834 63.9546 30.591 61.6821 30.591C61.1064 30.6211 60.5339 30.4885 60.0302 30.2084C59.5264 29.9283 59.1116 29.5119 58.8335 29.007H58.7905V33.4914H56.9321V21.4426H58.7309V22.9484H58.7651C59.056 22.446 59.4778 22.0318 59.9854 21.7499C60.493 21.4681 61.0676 21.3291 61.6479 21.3479C63.9458 21.3479 65.4604 23.1643 65.4604 25.9699ZM63.5503 25.9699C63.5503 24.1369 62.603 22.9318 61.1577 22.9318C59.7378 22.9318 58.7827 24.1623 58.7827 25.9699C58.7827 27.7942 59.7378 29.0158 61.1577 29.0158C62.603 29.0158 63.5503 27.8195 63.5503 25.9699H63.5503Z" fill="white"/>
<path d="M72.0464 27.0364C72.1841 28.2679 73.3804 29.0764 75.0152 29.0764C76.5816 29.0764 77.7085 28.2678 77.7085 27.1575C77.7085 26.1936 77.0288 25.6165 75.4195 25.221L73.8101 24.8333C71.5298 24.2825 70.4712 23.2161 70.4712 21.4856C70.4712 19.343 72.3384 17.8713 74.9898 17.8713C77.6138 17.8713 79.4126 19.343 79.4732 21.4856H77.5972C77.4849 20.2463 76.4605 19.4983 74.9634 19.4983C73.4663 19.4983 72.4419 20.2551 72.4419 21.3567C72.4419 22.2346 73.0962 22.7512 74.6968 23.1467L76.0649 23.4826C78.6128 24.0852 79.6714 25.1086 79.6714 26.925C79.6714 29.2483 77.8208 30.7033 74.8774 30.7033C72.1235 30.7033 70.2642 29.2824 70.144 27.0363L72.0464 27.0364Z" fill="white"/>
<path d="M83.6821 19.3V21.4426H85.4038V22.9143H83.6821V27.9055C83.6821 28.6809 84.0269 29.0422 84.7837 29.0422C84.9881 29.0387 85.1921 29.0243 85.395 28.9992V30.4621C85.0547 30.5257 84.7089 30.5545 84.3628 30.5481C82.5298 30.5481 81.8149 29.8596 81.8149 28.1037V22.9143H80.4985V21.4426H81.8149V19.3H83.6821Z" fill="white"/>
<path d="M86.4009 25.97C86.4009 23.1213 88.0787 21.3313 90.6949 21.3313C93.3199 21.3313 94.9898 23.1213 94.9898 25.97C94.9898 28.8264 93.3287 30.6086 90.6949 30.6086C88.062 30.6086 86.4009 28.8264 86.4009 25.97ZM93.0962 25.97C93.0962 24.0159 92.2007 22.8625 90.6949 22.8625C89.189 22.8625 88.2945 24.0247 88.2945 25.97C88.2945 27.9319 89.189 29.0764 90.6949 29.0764C92.2007 29.0764 93.0962 27.9319 93.0962 25.97H93.0962Z" fill="white"/>
<path d="M96.522 21.4428H98.2944V22.9837H98.3374C98.4574 22.5025 98.7393 22.0771 99.1359 21.7792C99.5325 21.4814 100.02 21.3291 100.515 21.348C100.729 21.3473 100.943 21.3705 101.152 21.4174V23.1556C100.882 23.073 100.599 23.0351 100.317 23.0433C100.047 23.0324 99.7778 23.08 99.5279 23.1829C99.2781 23.2858 99.0535 23.4415 98.8695 23.6394C98.6855 23.8373 98.5465 24.0726 98.4621 24.3293C98.3777 24.586 98.3498 24.8579 98.3804 25.1263V30.4965H96.522L96.522 21.4428Z" fill="white"/>
<path d="M109.72 27.8372C109.47 29.4807 107.87 30.6086 105.822 30.6086C103.188 30.6086 101.553 28.844 101.553 26.0129C101.553 23.1731 103.197 21.3313 105.744 21.3313C108.249 21.3313 109.824 23.052 109.824 25.7971V26.4338H103.429V26.5461C103.4 26.8793 103.441 27.215 103.552 27.5308C103.662 27.8467 103.838 28.1355 104.068 28.378C104.299 28.6206 104.578 28.8113 104.888 28.9376C105.197 29.0639 105.53 29.1229 105.865 29.1106C106.304 29.1517 106.745 29.05 107.121 28.8206C107.498 28.5911 107.791 28.2462 107.956 27.8371L109.72 27.8372ZM103.438 25.135H107.964C107.981 24.8354 107.936 24.5356 107.831 24.2544C107.726 23.9732 107.565 23.7166 107.356 23.5009C107.148 23.2851 106.897 23.1148 106.619 23.0006C106.342 22.8863 106.044 22.8307 105.744 22.8372C105.441 22.8354 105.141 22.8935 104.861 23.0082C104.581 23.123 104.326 23.292 104.112 23.5057C103.898 23.7193 103.728 23.9733 103.612 24.2529C103.496 24.5326 103.437 24.8324 103.438 25.135V25.135Z" fill="white"/>
<path d="M37.0742 11.2536H37.8721C38.0094 11.2707 38.1488 11.2592 38.2815 11.2198C38.4141 11.1803 38.5372 11.1138 38.6429 11.0245C38.7486 10.9351 38.8346 10.8248 38.8956 10.7005C38.9565 10.5763 38.9911 10.4407 38.9971 10.3025C38.9971 9.75217 38.583 9.3967 37.8809 9.3967C37.7401 9.37704 37.5969 9.38577 37.4596 9.42238C37.3223 9.45899 37.1938 9.52273 37.0816 9.60985C36.9693 9.69696 36.8757 9.80569 36.8061 9.92959C36.7366 10.0535 36.6926 10.1901 36.6768 10.3313H35.8008C35.8158 10.075 35.8835 9.82452 35.9996 9.59551C36.1156 9.3665 36.2776 9.16383 36.4754 9.00013C36.6732 8.83643 36.9025 8.71519 37.1492 8.64397C37.3959 8.57275 37.6545 8.55307 37.9091 8.58615C39.0839 8.58615 39.9112 9.24386 39.9112 10.1906C39.9139 10.5078 39.8078 10.8163 39.6105 11.0647C39.4132 11.3131 39.1367 11.4863 38.8272 11.5554V11.6257C39.1941 11.642 39.5398 11.8029 39.7885 12.0733C40.0372 12.3437 40.1687 12.7015 40.1543 13.0686C40.1271 13.3325 40.0476 13.5883 39.9203 13.821C39.793 14.0538 39.6205 14.2588 39.4129 14.424C39.2054 14.5892 38.9669 14.7113 38.7115 14.7832C38.4562 14.8551 38.189 14.8752 37.9258 14.8425C37.662 14.8785 37.3936 14.861 37.1367 14.791C36.8798 14.721 36.6396 14.6001 36.4305 14.4353C36.2213 14.2705 36.0475 14.0653 35.9194 13.832C35.7912 13.5986 35.7114 13.3418 35.6846 13.0769H36.5742C36.6279 13.6477 37.1524 14.0159 37.9258 14.0159C38.6992 14.0159 39.2041 13.6023 39.2041 13.0193C39.2041 12.428 38.7285 12.0637 37.8975 12.0637H37.0742V11.2536Z" fill="white"/>
<path d="M41.165 13.4246C41.165 12.614 41.7695 12.1467 42.8398 12.0803L44.0596 12.01V11.6213C44.0596 11.1457 43.7461 10.8772 43.1377 10.8772C42.6416 10.8772 42.2988 11.0593 42.1992 11.3777H41.3389C41.4297 10.6042 42.1582 10.1082 43.1797 10.1082C44.3086 10.1082 44.9453 10.6702 44.9453 11.6213V14.698H44.0889V14.0652H44.0186C43.8758 14.2922 43.6754 14.4772 43.4378 14.6014C43.2002 14.7256 42.9339 14.7846 42.666 14.7722C42.477 14.7918 42.2859 14.7717 42.1052 14.713C41.9244 14.6543 41.758 14.5584 41.6165 14.4314C41.4751 14.3044 41.3619 14.1492 41.2841 13.9758C41.2063 13.8024 41.1658 13.6146 41.165 13.4246ZM44.0596 13.0398V12.6633L42.9599 12.7336C42.3398 12.7751 42.0585 12.9861 42.0585 13.383C42.0585 13.7883 42.4101 14.0242 42.8935 14.0242C43.0352 14.0385 43.1783 14.0242 43.3143 13.9821C43.4503 13.94 43.5765 13.871 43.6852 13.7792C43.794 13.6873 43.8832 13.5745 43.9475 13.4475C44.0119 13.3205 44.0499 13.1818 44.0596 13.0398Z" fill="white"/>
<path d="M47.3037 10.9431V14.698H46.415V10.1951H49.3799V10.9431L47.3037 10.9431Z" fill="white"/>
<path d="M54.7656 12.4445C54.7656 13.8752 54.042 14.7722 52.9053 14.7722C52.6262 14.7912 52.3476 14.7302 52.1021 14.5962C51.8566 14.4622 51.6545 14.2608 51.5195 14.0158H51.4492V16.195H50.5605V10.195H51.416V10.9392H51.4824C51.6198 10.6856 51.8245 10.475 52.074 10.3305C52.3236 10.186 52.6082 10.1132 52.8965 10.1203C54.042 10.1203 54.7656 11.0134 54.7656 12.4445ZM53.8516 12.4445C53.8516 11.4934 53.4014 10.9187 52.6484 10.9187C51.9004 10.9187 51.4326 11.5056 51.4326 12.4484C51.4326 13.3869 51.9004 13.9743 52.6445 13.9743C53.4014 13.9743 53.8516 13.3996 53.8516 12.4445Z" fill="white"/>
<path d="M55.9492 16.3108V15.5457C56.0454 15.5579 56.1423 15.5634 56.2392 15.5623C56.4285 15.5763 56.6164 15.5199 56.7667 15.4039C56.917 15.2879 57.0192 15.1205 57.0536 14.9338L57.1201 14.7146L55.4902 10.1951H56.4579L57.5869 13.7717H57.6572L58.7822 10.1951H59.7246L58.0459 14.884C57.6611 15.9797 57.2353 16.3313 56.3174 16.3313C56.2431 16.3313 56.0322 16.323 55.9492 16.3108Z" fill="white"/>
<path d="M60.417 13.42H61.3018C61.3887 13.817 61.7608 14.024 62.2813 14.024C62.8731 14.024 63.2363 13.7633 63.2363 13.358C63.2363 12.9239 62.9102 12.7169 62.2813 12.7169H61.6074V12.0265H62.2695C62.8066 12.0265 63.0801 11.8199 63.0801 11.4435C63.0801 11.1129 62.8154 10.8605 62.2695 10.8605C61.7725 10.8605 61.4092 11.0714 61.3515 11.4269H60.4951C60.5591 11.0184 60.7809 10.6514 61.1128 10.4048C61.4446 10.1581 61.86 10.0516 62.2695 10.108C63.3398 10.108 63.9522 10.5919 63.9522 11.3527C63.9571 11.5645 63.8893 11.7717 63.7599 11.9395C63.6305 12.1073 63.4474 12.2256 63.2412 12.2746V12.3449C63.4867 12.3765 63.7119 12.4972 63.8743 12.6839C64.0367 12.8707 64.1248 13.1106 64.1221 13.358C64.1221 14.214 63.3936 14.7804 62.2813 14.7804C61.2979 14.7804 60.499 14.3297 60.417 13.42Z" fill="white"/>
<path d="M65.4019 14.698V10.1951H66.2827V13.2922H66.353L68.4282 10.1951H69.3091V14.698H68.4282V11.5842H68.3618L66.2827 14.698L65.4019 14.698Z" fill="white"/>
<path d="M74.1616 10.9431H72.7436V14.6979H71.854V10.9431H70.436V10.1951H74.1616V10.9431Z" fill="white"/>
<path d="M78.9487 13.4823C78.8276 13.8938 78.5658 14.2497 78.209 14.4878C77.8522 14.7259 77.423 14.8311 76.9966 14.785C76.6999 14.7928 76.4051 14.736 76.1326 14.6185C75.8601 14.5009 75.6164 14.3255 75.4185 14.1044C75.2206 13.8832 75.0732 13.6217 74.9865 13.3379C74.8998 13.054 74.8759 12.7548 74.9165 12.4608C74.877 12.1659 74.9013 11.866 74.9878 11.5813C75.0743 11.2966 75.2209 11.0338 75.4178 10.8108C75.6146 10.5877 75.8571 10.4095 76.1288 10.2883C76.4006 10.1671 76.6951 10.1057 76.9927 10.1082C78.2456 10.1082 79.0024 10.9642 79.0024 12.3782V12.6883H75.8227V12.7381C75.8087 12.9034 75.8293 13.0698 75.8834 13.2266C75.9374 13.3835 76.0237 13.5272 76.1367 13.6487C76.2496 13.7702 76.3867 13.8667 76.5392 13.9321C76.6916 13.9974 76.8561 14.0301 77.022 14.0281C77.2344 14.0535 77.4496 14.0152 77.6402 13.918C77.8307 13.8208 77.9881 13.6691 78.0923 13.4822L78.9487 13.4823ZM75.8227 12.0311H78.0961C78.1074 11.88 78.0869 11.7283 78.036 11.5856C77.9851 11.443 77.905 11.3125 77.8007 11.2027C77.6964 11.0928 77.5703 11.006 77.4305 10.9478C77.2906 10.8896 77.1402 10.8612 76.9887 10.8646C76.835 10.8625 76.6824 10.8912 76.5399 10.9491C76.3975 11.007 76.2681 11.0929 76.1594 11.2016C76.0507 11.3104 75.9649 11.4398 75.9071 11.5823C75.8493 11.7247 75.8206 11.8773 75.8227 12.0311H75.8227Z" fill="white"/>
<path d="M82.7163 10.1951H84.7466C85.6274 10.1951 86.144 10.6414 86.144 11.3401C86.1454 11.5618 86.0706 11.7772 85.9321 11.9504C85.7936 12.1235 85.5999 12.2439 85.3833 12.2912V12.3615C85.6463 12.3782 85.8928 12.4951 86.072 12.6883C86.2512 12.8815 86.3494 13.1362 86.3462 13.3996C86.3462 14.1853 85.7554 14.698 84.7671 14.698H82.7163V10.1951ZM83.5972 10.8772V12.0432H84.478C85.0151 12.0432 85.272 11.8367 85.272 11.4558C85.272 11.1047 85.0484 10.8772 84.5767 10.8772L83.5972 10.8772ZM83.5972 12.6965V14.0159H84.6509C85.1763 14.0159 85.4576 13.7839 85.4576 13.3582C85.4576 12.9075 85.1392 12.6965 84.5396 12.6965L83.5972 12.6965Z" fill="white"/>
</svg>
