<svg width="65" height="40" viewBox="0 0 65 40" fill="none" xmlns="http://www.w3.org/2000/svg">
<path d="M40.9902 4.27734H23.6819V35.7273H40.9902V4.27734Z" fill="#FF5F00"/>
<path d="M24.7835 20C24.7835 13.6222 27.7362 7.93889 32.3359 4.27778C28.9701 1.6 24.7284 0 20.1121 0C9.18841 0 0.335938 8.95556 0.335938 20C0.335938 31.0444 9.18841 40 20.1121 40C24.7284 40 28.9701 38.4 32.3359 35.7222C27.7362 32.0611 24.7835 26.3778 24.7835 20Z" fill="#EB001B"/>
<path d="M62.4465 32.3947V31.7503H62.7054V31.6169H62.0499V31.7503H62.3088V32.3947H62.4465ZM63.719 32.3947V31.6169H63.5207L63.2893 32.1503L63.058 31.6169H62.8596V32.3947H63.0029V31.8114L63.2177 32.3169H63.3664L63.5813 31.8114V32.4003H63.719V32.3947Z" fill="#F79E1B"/>
<path d="M64.3359 20C64.3359 31.0444 55.4835 40 44.5597 40C39.9434 40 35.7017 38.4 32.3359 35.7222C36.9357 32.0611 39.8884 26.3778 39.8884 20C39.8884 13.6222 36.9357 7.93889 32.3359 4.27778C35.7017 1.6 39.9434 0 44.5597 0C55.4835 0 64.3359 8.95556 64.3359 20Z" fill="#F79E1B"/>
</svg>
