<svg width="89" height="28" viewBox="0 0 89 28" fill="none" xmlns="http://www.w3.org/2000/svg">
<path d="M18.8881 18.9253L26.2861 0.49478H33.7526L22.2218 27.5839H14.7096L9.03547 5.97108C8.69297 4.63293 8.39613 4.1494 7.3458 3.58715C5.64471 2.66506 2.81336 1.81044 0.335938 1.28193L0.507188 0.49478H12.6089C14.1502 0.49478 15.5316 1.49558 15.8855 3.2498L18.8881 18.9253Z" fill="white"/>
<path d="M30.9213 27.5727L36.8009 0.49478H43.9135L38.0339 27.5727H30.9213Z" fill="white"/>
<path fill-rule="evenodd" clip-rule="evenodd" d="M73.5056 2.4739C74.0194 1.28193 75.1725 0.49478 76.5311 0.49478H82.6047L88.3359 27.5727H81.7599L80.9037 23.5245H71.7817L70.2975 27.5727H62.831L73.5056 2.4739ZM79.7392 17.9807L77.5814 7.81526L73.8481 17.9807H79.7392Z" fill="white"/>
<path d="M52.0765 16.3165C49.3821 15.0233 45.8087 12.853 45.8544 8.951C45.8886 3.67711 50.832 0 57.8647 0C60.6047 0 62.8082 0.584739 64.5093 1.21446L63.2648 6.96064C60.0796 5.51004 57.2711 5.61124 56.255 5.74618C54.2 6.00482 53.2638 7.03936 53.241 8.00642C53.2135 9.28369 54.8191 10.1135 56.7492 11.111C59.6279 12.5988 63.2283 14.4595 63.2078 18.7341C63.1735 24.3679 58.2872 28 50.8206 28C47.6354 27.9663 44.5643 27.3141 42.9088 26.5606L44.1989 20.6233C44.2589 20.6506 44.3194 20.6782 44.3805 20.7061C46.0068 21.4486 48.0616 22.3867 51.5056 22.3325C53.5492 22.2988 55.7412 21.5004 55.7641 19.6787C55.7755 18.498 54.8393 17.6434 52.0765 16.3165Z" fill="white"/>
</svg>
